<svg id="Layer_1" data-name="Layer 1" xmlns="http://www.w3.org/2000/svg" viewBox="0 0 1334 89">
    <defs>
        <style>.cls-1{fill:#fff;}.cls-2{fill:#808080;}</style>
    </defs>
    <title>logo-p</title>
    <path class="cls-1"
          d="M37.09,1.6q11.35,0,19.64,3.78A29.22,29.22,0,0,1,69.67,16.12a29.58,29.58,0,0,1,4.51,16.47,30,30,0,0,1-4.51,16.47A29.22,29.22,0,0,1,56.73,59.79a48.38,48.38,0,0,1-19.64,3.66H19.89V87H0.13V1.6h37ZM36,47.35q8.91,0,13.54-3.78t4.64-11q0-7.2-4.64-11T36,17.7H19.89V47.35H36ZM140.24,68.7H100.59L93,87H72.78L110.84,1.6h19.52L168.55,87H147.81Zm-6.22-15L120.48,21l-13.54,32.7H134ZM231.82,87L215.35,63.21H197.17V87H177.41V1.6h37q11.35,0,19.64,3.78a29.22,29.22,0,0,1,12.93,10.74,29.57,29.57,0,0,1,4.51,16.47,29,29,0,0,1-4.64,16.47,28.75,28.75,0,0,1-12.93,10.49L253,87H231.82Zm-0.37-54.41q0-7.2-4.64-11t-13.54-3.9h-16.1V47.47h16.1q8.91,0,13.54-3.9T231.45,32.59ZM283.62,17.7H256.29V1.6h74.42V17.7H303.38V87H283.62V17.7ZM419.67,1.6V87H403.44L360.86,35.15V87H341.35V1.6h16.35l42.46,51.85V1.6h19.52ZM506,71.14V87H439.87V1.6h64.54V17.46h-44.9V36h39.65V51.38H459.52V71.14H506ZM576.14,87L559.67,63.21H541.49V87H521.72V1.6h37q11.35,0,19.64,3.78a29.22,29.22,0,0,1,12.93,10.74,29.58,29.58,0,0,1,4.51,16.47,29,29,0,0,1-4.64,16.47,28.76,28.76,0,0,1-12.93,10.49L597.36,87H576.14Zm-0.37-54.41q0-7.2-4.64-11t-13.54-3.9h-16.1V47.47h16.1q8.91,0,13.54-3.9T575.77,32.59ZM639.5,88.46a72,72,0,0,1-19.64-2.68,46.79,46.79,0,0,1-15.13-7.2l6.71-14.88a45.53,45.53,0,0,0,13.05,6.47,49,49,0,0,0,15.13,2.44q8.42,0,12.44-2.44t4-6.71a6.13,6.13,0,0,0-2.44-5,16.73,16.73,0,0,0-6.1-3.29q-3.66-1.22-10-2.68a139.12,139.12,0,0,1-16-4.64,26.43,26.43,0,0,1-10.74-7.44q-4.39-5.12-4.39-13.66a23.48,23.48,0,0,1,4-13.42,27,27,0,0,1,12.08-9.64q8.17-3.54,19.89-3.54a65.65,65.65,0,0,1,16,2A47.22,47.22,0,0,1,672.07,7.7l-6.1,15Q654.14,16,642.3,16,634,16,630,18.68a8.22,8.22,0,0,0-3.9,7.08q0,4.39,4.51,6.59a77.56,77.56,0,0,0,14,4.15,139.17,139.17,0,0,1,16,4.64,26,26,0,0,1,10.61,7.32q4.51,5,4.51,13.54a23.36,23.36,0,0,1-4.15,13.42q-4,6-12.2,9.52T639.5,88.46ZM744.74,43q9.15,1.71,13.91,7.2t4.88,14.27q0,10.86-7.93,16.71T732.06,87H694V1.6h35.62q13.91,0,21.59,5.73T759,23.44a19.41,19.41,0,0,1-3.9,12.32A20.87,20.87,0,0,1,744.74,43ZM700.22,7V41h29.16q11.22,0,17.2-4.27t6.1-12.81q0-8.3-6.1-12.57T729.37,7H700.22Zm31.84,74.66q12.44,0,18.79-4.27t6.47-13.42q0-9-6.47-13.3t-18.79-4.27H700.22V81.63h31.84Zm89.91,6A46,46,0,0,1,799.27,82a42.69,42.69,0,0,1-16-15.62,43.19,43.19,0,0,1-5.73-22.08,43.19,43.19,0,0,1,5.73-22.08,41.78,41.78,0,0,1,16-15.49A45.23,45.23,0,0,1,822,1,46,46,0,0,1,844.66,6.6,40.91,40.91,0,0,1,860.52,22.1a42.72,42.72,0,0,1,5.86,22.2,42.72,42.72,0,0,1-5.86,22.2A40.91,40.91,0,0,1,844.66,82,46,46,0,0,1,822,87.61Zm0-5.73A38.83,38.83,0,0,0,841.36,77,36.09,36.09,0,0,0,855,63.58a37.85,37.85,0,0,0,5-19.28,37.2,37.2,0,0,0-5-19.15A35.83,35.83,0,0,0,841.36,11.6,38.83,38.83,0,0,0,822,6.72a39.51,39.51,0,0,0-19.52,4.88,35.81,35.81,0,0,0-13.66,13.54,37.19,37.19,0,0,0-5,19.15,37.84,37.84,0,0,0,5,19.28A36.07,36.07,0,0,0,802.45,77,39.51,39.51,0,0,0,822,81.88Zm102.22,5.73A46,46,0,0,1,901.5,82a42.7,42.7,0,0,1-16-15.62,43.2,43.2,0,0,1-5.73-22.08,43.2,43.2,0,0,1,5.73-22.08,41.79,41.79,0,0,1,16-15.49A45.24,45.24,0,0,1,924.19,1,46,46,0,0,1,946.88,6.6,40.9,40.9,0,0,1,962.74,22.1a42.72,42.72,0,0,1,5.86,22.2,42.72,42.72,0,0,1-5.86,22.2A40.9,40.9,0,0,1,946.88,82,46,46,0,0,1,924.19,87.61Zm0-5.73A38.82,38.82,0,0,0,943.59,77a36.07,36.07,0,0,0,13.66-13.42,37.84,37.84,0,0,0,5-19.28,37.19,37.19,0,0,0-5-19.15A35.81,35.81,0,0,0,943.59,11.6a38.82,38.82,0,0,0-19.4-4.88,39.51,39.51,0,0,0-19.52,4.88A35.83,35.83,0,0,0,891,25.15a37.2,37.2,0,0,0-5,19.15,37.85,37.85,0,0,0,5,19.28A36.09,36.09,0,0,0,904.67,77,39.51,39.51,0,0,0,924.19,81.88Zm91.36-37L996.4,64.55V87h-6.22V1.6h6.22V56.5l53.31-54.9h7.57L1019.7,40.4,1059.84,87h-7.57Z"/>
    <path class="cls-2"
          d="M1079.37,87.49a5.24,5.24,0,0,1-3.66-1.46,5.41,5.41,0,0,1-1.46-3.78,5,5,0,0,1,1.46-3.66,5.24,5.24,0,0,1,3.66-1.46,5.21,5.21,0,0,1,5.13,5.12,5.16,5.16,0,0,1-1.59,3.78A4.8,4.8,0,0,1,1079.37,87.49ZM1168.7,1.6V87h-5.12l-58.2-74.18V87h-6.22V1.6h5.25l58.07,74.18V1.6h6.22Zm88.75,79.79V87h-58.92V1.6h57.09V7.21h-50.87V40.88h45.5v5.49h-45.5v35h52.7Zm39-74.18h-30.74V1.6h67.71V7.21h-30.74V87h-6.23V7.21Z"/>
</svg>
